HIERARCHY
ROOT Hips
{
	OFFSET 0.000000 0.000000 0.000000 
	CHANNELS 6 Xposition Yposition Zposition Zrotation Yrotation Xrotation
	JOINT LeftUpLeg
	{
		OFFSET 1.363060 -1.794630 0.839290 
		CHANNELS 3 Zrotation Yrotation Xrotation
		JOINT LeftLeg
		{
			OFFSET 2.448110 -6.726130 0.000000 
			CHANNELS 3 Zrotation Yrotation Xrotation
			JOINT LeftFoot
			{
				OFFSET 2.562200 -7.039590 0.000000 
				CHANNELS 3 Zrotation Yrotation Xrotation
				JOINT LeftToeBase
				{
					OFFSET 0.157640 -0.433110 2.322550 
					CHANNELS 3 Zrotation Yrotation Xrotation
					End Site
					{
						OFFSET 0.000000 0.000000 0.000000 
					}
				}
			}
		}
	}
	JOINT RightUpLeg
	{
		OFFSET -1.305520 -1.794630 0.839290 
		CHANNELS 3 Zrotation Yrotation Xrotation
		JOINT RightLeg
		{
			OFFSET -2.542530 -6.985550 0.000000 
			CHANNELS 3 Zrotation Yrotation Xrotation
			JOINT RightFoot
			{
				OFFSET -2.568260 -7.056230 0.000000 
				CHANNELS 3 Zrotation Yrotation Xrotation
				JOINT RightToeBase
				{
					OFFSET -0.164730 -0.452590 2.363150 
					CHANNELS 3 Zrotation Yrotation Xrotation
					End Site
					{
						OFFSET 0.000000 0.000000 0.000000 
					}
				}
			}
		}
	}
	JOINT Spine
	{
		OFFSET 0.028270 2.035590 -0.193380 
		CHANNELS 3 Zrotation Yrotation Xrotation
		JOINT Spine1
		{
			OFFSET 0.056720 2.048850 -0.042750 
			CHANNELS 3 Zrotation Yrotation Xrotation
			JOINT Neck1
			{
				OFFSET -0.054170 1.746240 0.172020 
				CHANNELS 3 Zrotation Yrotation Xrotation
				JOINT Head
				{
					OFFSET 0.104070 1.761360 -0.123970 
					CHANNELS 3 Zrotation Yrotation Xrotation
					End Site
					{
						OFFSET 0.000000 0.000000 0.000000 
					}
				}
			}
			JOINT LeftArm
			{
				OFFSET 3.362410 1.200890 -0.311210 
				CHANNELS 3 Zrotation Yrotation Xrotation
				JOINT LeftForeArm
				{
					OFFSET 4.983000 -0.000000 -0.000000 
					CHANNELS 3 Zrotation Yrotation Xrotation
					JOINT LeftHand
					{
						OFFSET 3.483560 -0.000000 -0.000000 
						CHANNELS 3 Zrotation Yrotation Xrotation
						JOINT LeftHandIndex1
						{
							OFFSET 0.715260 -0.000000 -0.000000 
							CHANNELS 3 Zrotation Yrotation Xrotation
							End Site
							{
								OFFSET 0.000000 0.000000 0.000000 
							}
						}
					}
				}
			}
			JOINT RightArm
			{
				OFFSET -3.136600 1.374050 -0.404650 
				CHANNELS 3 Zrotation Yrotation Xrotation
				JOINT RightForeArm
				{
					OFFSET -5.241900 -0.000000 -0.000000 
					CHANNELS 3 Zrotation Yrotation Xrotation
					JOINT RightHand
					{
						OFFSET -3.444170 -0.000000 -0.000000 
						CHANNELS 3 Zrotation Yrotation Xrotation
						JOINT RightHandIndex1
						{
							OFFSET -0.622530 -0.000000 -0.000000 
							CHANNELS 3 Zrotation Yrotation Xrotation
							End Site
							{
								OFFSET 0.000000 0.000000 0.000000 
							}
						}
					}
				}
			}
		}
	}
}
MOTION
Frames: 15
Frame Time: 0.041667
1.856971 16.736328 3.866769 179.313565 1.598065 -172.330625 -29.602312 -12.288465 -12.571440 1.920456 12.079373 31.942319 -0.869167 19.834727 -16.388417 0.001600 0.259600 0.713200 34.989166 13.736454 -8.256961 -2.284749 -11.954618 34.028387 -2.529819 -12.923653 -30.832346 -0.137000 2.385400 -6.572000 0.297906 0.725164 -3.457057 -0.824907 0.031031 12.811783 6.834009 -2.980521 12.437298 0.283600 0.367500 24.145200 -105.130074 -5.488929 -6.222528 6.264051 -16.925738 -1.057373 0.382532 0.542570 63.006242 -7.125000 0.000000 0.000000 103.594156 -3.225152 -7.354840 -10.440405 27.274735 -2.283666 -0.047962 -2.527340 41.633347 7.125000 0.000000 0.000000 
1.861027 16.735901 3.853643 179.303977 1.580359 -172.262043 -29.591767 -12.313349 -12.605266 1.923258 12.087566 31.961230 -0.869480 19.842262 -16.403300 0.001500 0.251900 0.692000 34.991935 13.734564 -8.266973 -2.279474 -11.948684 34.002992 -2.533228 -12.933842 -30.860646 -0.136000 2.377300 -6.549600 0.298198 0.751332 -3.458207 -0.815809 0.046399 12.792080 6.840544 -2.959015 12.410199 0.301100 0.361400 24.099200 -105.197328 -5.271832 -10.126752 5.787986 -15.962324 -0.956370 0.394272 0.494321 66.283626 -7.125000 0.000000 0.000000 103.646068 -3.453181 -8.875836 -9.955151 26.595065 -2.176585 -0.074360 -2.492815 42.828248 7.125000 0.000000 0.000000 
1.865402 16.735368 3.840622 179.285237 1.573323 -172.190072 -29.589013 -12.332461 -12.643006 1.925056 12.094444 31.975140 -0.869917 19.850441 -16.417197 0.001400 0.241100 0.662400 34.984695 13.756551 -8.287846 -2.276277 -11.948220 33.990566 -2.535508 -12.955508 -30.889018 -0.135800 2.375000 -6.543200 0.299082 0.779601 -3.461307 -0.802947 0.061924 12.760267 6.844227 -2.928348 12.380167 0.312200 0.359700 24.046000 -105.229227 -5.028419 -14.091700 5.387934 -15.084766 -0.871768 0.399668 0.447988 69.684899 -7.125000 0.000000 0.000000 103.689643 -3.663231 -10.472369 -9.471135 25.890262 -2.072143 -0.103374 -2.456170 44.111846 7.125000 0.000000 0.000000 
1.869778 16.734514 3.827816 179.257341 1.572913 -172.119488 -29.596050 -12.344443 -12.677872 1.925600 12.098967 31.982069 -0.870549 19.859270 -16.428721 0.001300 0.228700 0.628300 34.966309 13.785480 -8.315558 -2.276001 -11.952242 33.991889 -2.538465 -12.974436 -30.922319 -0.135800 2.375300 -6.544200 0.299450 0.810202 -3.466202 -0.793940 0.078731 12.721524 6.841153 -2.892252 12.351231 0.310600 0.363500 24.007100 -105.217916 -4.762710 -18.058162 5.052982 -14.280501 -0.799989 0.401184 0.402722 73.152846 -7.125000 0.000000 0.000000 103.732468 -3.869109 -12.124489 -9.006301 25.184182 -1.973347 -0.133254 -2.415741 45.463827 7.125000 0.000000 0.000000 
1.874367 16.733553 3.815009 179.222575 1.576334 -172.058951 -29.613785 -12.346331 -12.700990 1.925008 12.100822 31.982478 -0.871189 19.868586 -16.440075 0.001100 0.214700 0.589900 34.942446 13.818792 -8.337516 -2.278515 -11.959062 34.004905 -2.541975 -12.999330 -30.961745 -0.136500 2.381500 -6.561300 0.298394 0.841780 -3.470591 -0.792514 0.096007 12.685543 6.835309 -2.868122 12.335326 0.302100 0.368300 24.005500 -105.166673 -4.482399 -21.989804 4.784537 -13.558955 -0.740090 0.398384 0.359673 76.648414 -7.125000 0.000000 0.000000 103.781316 -4.064740 -13.823061 -8.566741 24.489070 -1.881978 -0.164923 -2.372766 46.862331 7.125000 0.000000 0.000000 
1.879063 16.732379 3.802416 179.171847 1.579311 -172.011272 -29.650360 -12.338945 -12.708097 1.923368 12.100164 31.976875 -0.871396 19.876034 -16.452619 0.001000 0.200000 0.549500 34.905775 13.844814 -8.349007 -2.283726 -11.966664 34.026735 -2.546863 -13.022939 -31.010703 -0.137300 2.388500 -6.580600 0.295242 0.873935 -3.472210 -0.803167 0.113824 12.663559 6.819347 -2.853703 12.325747 0.273800 0.375400 24.023800 -105.071259 -4.191515 -25.820691 4.574080 -12.916768 -0.690274 0.391511 0.318916 80.099001 -7.125000 0.000000 0.000000 103.837873 -4.244837 -15.567218 -8.153278 23.806725 -1.796399 -0.195587 -2.325056 48.333055 7.125000 0.000000 0.000000 
1.884186 16.730885 3.789716 179.115047 1.598835 -171.978471 -29.699108 -12.326733 -12.701105 1.920533 12.099459 31.967241 -0.871408 19.885819 -16.471668 0.000900 0.188900 0.519100 34.865060 13.857443 -8.338597 -2.291629 -11.971304 34.053357 -2.553519 -13.045629 -31.067661 -0.138400 2.397900 -6.606800 0.287524 0.859377 -3.475020 -0.747838 0.086728 12.570223 7.313321 -3.690269 12.209168 0.242200 -1.310500 24.018400 -104.957912 -3.816294 -29.590153 4.432000 -12.343988 -0.648595 0.378884 0.278558 83.540757 -7.125000 0.000000 0.000000 103.885639 -4.403655 -17.332044 -7.758832 23.149638 -1.716976 -0.223410 -2.274569 49.830988 7.125000 0.000000 0.000000 
1.889628 16.729391 3.777123 179.057509 1.606428 -171.945755 -29.747623 -12.312751 -12.686303 1.918585 12.096692 31.958323 -0.872601 19.902490 -16.494557 0.000800 0.179000 0.491800 34.826949 13.870832 -8.331029 -2.298040 -11.976614 34.075992 -2.560233 -13.067962 -31.126009 -0.139600 2.407700 -6.633900 0.282451 0.893044 -3.473644 -0.767958 0.105819 12.551516 7.299049 -3.669673 12.193903 0.214500 -1.293600 24.004300 -104.809711 -3.494237 -33.210243 4.323982 -11.861427 -0.615392 0.360501 0.240987 86.898926 -7.125000 0.000000 0.000000 103.943973 -4.564271 -19.096301 -7.408362 22.510981 -1.644649 -0.250063 -2.224622 51.313992 7.125000 0.000000 0.000000 
1.895178 16.727897 3.764423 179.004858 1.618221 -171.912895 -29.791570 -12.297062 -12.672399 1.917590 12.095403 31.954421 -0.873510 19.920947 -16.528656 0.000700 0.174700 0.480100 34.793905 13.876290 -8.319197 -2.302752 -11.978743 34.089795 -2.566956 -13.085960 -31.180986 -0.140900 2.419600 -6.666700 0.278120 0.925005 -3.471169 -0.784011 0.123189 12.536705 7.294492 -3.639985 12.180721 0.200300 -1.274800 23.988600 -104.653239 -3.186115 -36.893954 4.252489 -11.425012 -0.586733 0.333272 0.201047 90.370735 -7.125000 0.000000 0.000000 103.992560 -4.700538 -20.877284 -7.080098 21.879940 -1.576012 -0.273523 -2.172367 52.811595 7.125000 0.000000 0.000000 
1.901048 16.726510 3.751723 178.964460 1.627028 -171.874853 -29.818481 -12.287805 -12.667594 1.918016 12.096803 31.958134 -0.874779 19.942551 -16.567938 0.000700 0.173300 0.476300 34.775829 13.877337 -8.307468 -2.304471 -11.977701 34.091168 -2.573108 -13.103635 -31.232055 -0.142400 2.432000 -6.701200 0.274619 0.951698 -3.470691 -0.796335 0.137529 12.515706 7.304839 -3.619163 12.170987 0.207300 -1.263800 23.975100 -104.480727 -2.852471 -40.385796 4.218965 -11.060560 -0.563992 0.302351 0.164440 93.710730 -7.125000 0.000000 0.000000 104.031631 -4.831795 -22.629283 -6.781094 21.273651 -1.513004 -0.294994 -2.120428 54.287088 7.125000 0.000000 0.000000 
1.906704 16.725016 3.738596 178.941060 1.635786 -171.834800 -29.830159 -12.288062 -12.664112 1.920406 12.101154 31.971334 -0.877340 19.974148 -16.615376 0.000700 0.176600 0.485300 34.773678 13.868745 -8.290243 -2.303610 -11.972669 34.080666 -2.578820 -13.115226 -31.275003 -0.143900 2.445100 -6.737500 0.272441 0.971013 -3.469439 -0.797569 0.146541 12.503353 7.336697 -3.616925 12.177117 0.249000 -1.268800 23.983200 -104.308313 -2.510821 -43.697376 4.215297 -10.757645 -0.545773 0.268559 0.130217 96.900705 -7.125000 0.000000 0.000000 104.049558 -4.957217 -24.272442 -6.524443 20.720969 -1.458932 -0.313368 -2.077773 55.630173 7.125000 0.000000 0.000000 
1.911933 16.723308 3.724935 178.929383 1.637999 -171.796154 -29.831427 -12.299463 -12.657590 1.924317 12.107902 31.992852 -0.880952 20.014010 -16.669475 0.000800 0.183800 0.504900 34.783213 13.846478 -8.266246 -2.300963 -11.964290 34.061689 -2.585036 -13.117558 -31.315324 -0.145600 2.459000 -6.776000 0.271650 0.983714 -3.467550 -0.797450 0.151947 12.503670 7.366194 -3.618132 12.183844 0.290800 -1.275800 24.002400 -104.133517 -2.167588 -46.800942 4.232809 -10.505840 -0.531005 0.234094 0.098767 99.903235 -7.125000 0.000000 0.000000 104.050566 -5.087283 -25.804611 -6.307660 20.220894 -1.412293 -0.327338 -2.041502 56.909634 7.125000 0.000000 0.000000 
1.916949 16.721280 3.710955 178.928541 1.630077 -171.763893 -29.823912 -12.326201 -12.640361 1.929524 12.116184 32.020218 -0.885932 20.063470 -16.724735 0.000900 0.193900 0.532600 34.805949 13.812778 -8.230862 -2.297923 -11.953889 34.039431 -2.591974 -13.115169 -31.357474 -0.147000 2.470600 -6.808100 0.271558 0.990611 -3.464760 -0.805471 0.155928 12.509304 7.389917 -3.627276 12.189526 0.324400 -1.284700 24.014400 -103.956336 -1.813125 -49.593108 4.270909 -10.317048 -0.520608 0.202039 0.072619 102.635909 -7.125000 0.000000 0.000000 104.044282 -5.220972 -27.220553 -6.127086 19.775183 -1.373505 -0.341284 -2.013336 58.072795 7.125000 0.000000 0.000000 
1.921752 16.719146 3.697081 178.928830 1.615822 -171.737922 -29.818238 -12.365078 -12.613814 1.935239 12.124986 32.050057 -0.892195 20.120202 -16.778943 0.001000 0.201400 0.553400 34.832009 13.781855 -8.187668 -2.295232 -11.943291 34.018631 -2.599405 -13.115516 -31.403470 -0.148300 2.482000 -6.839700 0.270920 0.995492 -3.462213 -0.826733 0.160998 12.513886 7.400796 -3.639874 12.194389 0.337000 -1.290300 24.028300 -103.768818 -1.459554 -52.150953 4.319060 -10.165638 -0.512379 0.171780 0.048601 105.146524 -7.125000 0.000000 0.000000 104.040193 -5.348977 -28.615096 -5.967052 19.352890 -1.336304 -0.349583 -1.979199 59.294836 7.125000 0.000000 0.000000 
1.926554 16.716905 3.683420 178.926129 1.589380 -171.715831 -29.814360 -12.412965 -12.582774 1.940938 12.133849 32.080342 -0.898130 20.173250 -16.829174 0.001000 0.206100 0.566300 34.858103 13.752404 -8.141080 -2.293470 -11.933711 34.002026 -2.607839 -13.119854 -31.457523 -0.148800 2.485600 -6.849600 0.270002 0.996999 -3.461164 -0.858679 0.166193 12.506577 7.405529 -3.645782 12.193770 0.337900 -1.289900 24.025300 -103.573769 -1.099430 -54.410690 4.371458 -10.048395 -0.506270 0.146676 0.026789 107.356835 -7.125000 0.000000 0.000000 104.037776 -5.458334 -30.030974 -5.816083 18.930554 -1.299143 -0.355073 -1.939808 60.581323 7.125000 0.000000 0.000000 
